<svg xmlns="http://www.w3.org/2000/svg" xmlns:xlink="http://www.w3.org/1999/xlink" width="99.253" height="100" viewBox="0 0 99.253 100"><defs><style>.a,.b,.o{fill:none;}.a{stroke:#8d4dc9;}.a,.b{stroke-width:2px;}.b{stroke:#f88a12;opacity:0.5;}.c{clip-path:url(#a);}.d{fill:#e8a78c;}.e{fill:#c7c9cb;}.e,.h,.i{mix-blend-mode:multiply;isolation:isolate;}.f{fill:#fff;}.g,.h{fill:#1eff8e;}.i{fill:#aeb0b3;}.j{fill:#051df6;}.k{fill:#095380;}.l{fill:#711c00;}.m{fill:#822105;}.n{stroke:none;}</style><clipPath id="a"><path class="a" d="M139.117,350.528A49.627,49.627,0,1,1,89.49,301.054,49.55,49.55,0,0,1,139.117,350.528Z" transform="translate(-39.863 -301.054)"/></clipPath></defs><g transform="translate(-113 -92.698)"><g class="b" transform="translate(113 93.753)"><ellipse class="n" cx="49.627" cy="49.472" rx="49.627" ry="49.472"/><ellipse class="o" cx="49.627" cy="49.472" rx="48.627" ry="48.472"/></g><g class="c" transform="translate(113 92.698)"><g transform="translate(7.398 9.728)"><g transform="translate(34.194 54.467)"><rect class="d" width="16.011" height="8.397" transform="translate(0)"/><path class="e" d="M88.2,375.4a15.291,15.291,0,0,0,7.06-1.976,12.783,12.783,0,0,0,3.876-3.318c.192-.253.4-.539.6-.846v-.3H83.722v6.282A36.409,36.409,0,0,0,88.2,375.4Z" transform="translate(-83.722 -368.96)"/></g><path class="d" d="M91.189,320.183h-.012c-10.23.288-18.039,4.478-18,18.928.023,8.567.805,11.094,3.311,20.869,1.732,6.764,10.95,10.332,14.464,10.564.075-.006.153-.013.233-.021.08.008.158.015.233.021,3.513-.233,12.732-3.8,14.464-10.564,2.5-9.776,3.287-12.3,3.309-20.869C109.227,324.661,101.419,320.471,91.189,320.183Z" transform="translate(-48.983 -311.827)"/><path class="d" d="M109.028,345.362l-1.119,8.532c4.393,1.928,5.079-8.112,5.079-8.112C111.972,343.278,109.028,345.362,109.028,345.362Z" transform="translate(-50.779 -313.159)"/><path class="d" d="M70.5,346.864s.686,10.042,5.077,8.113l-1.117-8.532S71.511,344.36,70.5,346.864Z" transform="translate(-48.845 -313.218)"/><path class="d" d="M98.009,378.926l21.624,5.61s7.38,1.128,9.263,7.738l3.226,11.982H47.664l3.226-11.982c1.883-6.61,9.263-7.738,9.263-7.738l21.561-5.61Z" transform="translate(-47.664 -315.037)"/><path class="f" d="M47.664,404.255l3.226-11.982c1.883-6.61,9.263-7.738,9.263-7.738l21.561-5.61H98.009l21.624,5.61s7.38,1.128,9.263,7.738l3.226,11.982" transform="translate(-47.664 -315.037)"/><g transform="translate(36.877 62.864)"><path class="g" d="M93.294,377.842H90.513l-3.961,6.222,3.542,3.974h3.618l3.542-3.974Z" transform="translate(-86.552 -377.842)"/><path class="h" d="M93.872,387.281a11.111,11.111,0,0,1-2.7-9.438h-.662l-3.961,6.222,3.543,3.974h3.618l.435-.488C94.052,387.464,93.96,387.373,93.872,387.281Z" transform="translate(-86.552 -377.843)"/></g><g transform="translate(42.168 58.933)"><path class="i" d="M100.2,373.685l-8.065,4.2,5.315,7.977,9.648-5.789Z" transform="translate(-92.131 -373.685)"/><path class="f" d="M100.2,373.685l-8.065,4.2,5.411,6.917,9.023-5.208Z" transform="translate(-92.131 -373.685)"/></g><g transform="translate(27.252 58.666)"><path class="i" d="M83.3,373.4l8.016,4.2-5.267,7.976L76.4,379.789Z" transform="translate(-76.402 -373.401)"/><path class="f" d="M83.33,373.4l8.065,4.2-5.411,6.919-9.023-5.21Z" transform="translate(-76.431 -373.401)"/></g><path class="j" d="M75.549,380.6l-15.4,4s-7.38,1.128-9.263,7.738l-3.226,11.982h84.458L128.9,392.331c-1.883-6.61-9.263-7.738-9.263-7.738l-16.123-4.611L89.832,403.717Z" transform="translate(-47.664 -315.095)"/><path class="g" d="M90.117,388.629l-1.928,8.488,3.738,6.049,3.489-6.052-1.679-8.484Z" transform="translate(-49.759 -315.568)"/><path class="k" d="M76.671,380.633l-7.294,1.892,4.115,1.592L70.952,387l14.712,17.353H91.38Z" transform="translate(-48.787 -315.131)"/><path class="k" d="M105.793,378.9l8.024,2.3L109.7,383l2.538,2.879L97.531,403.23H91.815Z" transform="translate(-49.947 -315.036)"/><path class="l" d="M73.148,344.611l1.6,9.591,1.329.86L74.745,341.6l2.28-5.372.552-4.421.067-.042c1.629-5.687,14.2-4.991,14.2-4.991,14.954.306,12.935,10.664,12.935,10.664l2.2,4.656-1.328,13.463,1.328-.859,1.6-9.59c2.415-5.273.966-17.521.966-17.521s-1.821-4.99-5.7-5.562c0,0-1.813-8.357-13.712-6.847,0,0-11.069,2.552-14.687-3.831,0,0-.14,4.293,2.2,5.8,0,0-2.372-1.393-2.755-2.669,0,0,.171,2.677,1.637,3.608-.729-.43-3.423-2.153-4.39-4.653,0,0-.772,4.062,2.372,6.268,0,0-4.318-2.437-4.137-5.223,0,0-1.346,5.687,2.539,7.08,0,0-1.428,1.045-4.805-2.9,0,0-.973,6.74,3.842,7.428C71.946,326.084,70.05,329.913,73.148,344.611Zm3.564-26.421-.021-.011Z" transform="translate(-48.717 -311.344)"/><path class="m" d="M73.356,331.817c.324.112,1.187.8,1.733,1.041-.045-1.772-.56-3.563-.432-5.438a29.229,29.229,0,0,0,3,1.22,4.414,4.414,0,0,1-.9-3.073c1.345-.174,2.43.962,3.693.9.116-.937-.273-1.906-.2-2.873,1.98.31,4.038,1.163,6.03,1.482a15.275,15.275,0,0,1-1.13-2.423c2.5.492,5.015,1.277,7.536,1.728-.214-.676-.975-1.271-.916-2.062,2.66-.279,5.59,2.038,8.113,2.637a3.149,3.149,0,0,1-1.22-1.394,29.187,29.187,0,0,1,5.092,3.232,5.7,5.7,0,0,1-.648-.636c.742.571,1.49,1.161,2.175,1.8-.779-1.923-3.273-2.539-3.814-4.573a4.448,4.448,0,0,0,1.206,1.224c-.674-1.55-2.565-2.886-3.828-3.938a4.731,4.731,0,0,0-1.846-1.207,24.724,24.724,0,0,0,1.942,2.809c-1.17-.775-2.418-2.25-3.792-2.512.143.876,1.082,1.707,1.369,2.537-1.783-.774-3.36-3.511-5.339-3.694.265.475.674,1.006.906,1.469-1.008-.643-2.908-1.667-4.152-1.47a5.31,5.31,0,0,0,1.138,2.528c-1.437-.606-2.882-2.031-4.531-2.061.394.444.954.8,1.347,1.249-1.078,0-4.163-1.656-5.085-.9-.633.522.155,1.22.236,1.948-.668-.322-2.936-1.836-3.729-1.161-.672.571.87,1.729,1.03,2.434-1.129-.219-2.119-1-3.329-.9.148.549.675.961.994,1.473-.74-.057-1.389-.6-2.157-.406a3.286,3.286,0,0,0,.057,1.222c-.331-.124-.74-.317-1.11-.444a11.269,11.269,0,0,1,.671,1.482l-.2.039a3.213,3.213,0,0,1,.434,1.566c-.182-.144-.486-.18-.663-.3-.133.9.13,1.853.082,2.766-.061.05-.223.017-.3.033.229.157.3.375.508.538a.873.873,0,0,1-.175.045,2.9,2.9,0,0,1-.028,2.811,2.615,2.615,0,0,1,.361-.864" transform="translate(-48.963 -311.739)"/></g></g></g></svg>